<mxfile host="app.diagrams.net" modified="2024-02-06T13:12:27.920Z" agent="Mozilla/5.0 (Windows NT 10.0; Win64; x64) AppleWebKit/537.36 (KHTML, like Gecko) Chrome/121.0.0.0 Safari/537.36" version="21.8.2" etag="PweO7slk6ixiQAb1Ofjx" type="github">
  <diagram name="第 1 页" id="i3VIPLAufla8_ScL5z47">
    <mxGraphModel>
      <root>
        <mxCell id="0" />
        <mxCell id="1" parent="0" />
      </root>
    </mxGraphModel>
  </diagram>
</mxfile>
